<svg width="163" height="20" viewBox="0 0 163 20" fill="none" xmlns="http://www.w3.org/2000/svg">
<path d="M7.23887 19.25C5.8722 19.25 4.56387 19.0583 3.31387 18.675C2.06387 18.275 1.0722 17.7667 0.338867 17.15L1.46387 14.625C2.16387 15.175 3.03053 15.6333 4.06387 16C5.0972 16.3667 6.15553 16.55 7.23887 16.55C8.15553 16.55 8.8972 16.45 9.46387 16.25C10.0305 16.05 10.4472 15.7833 10.7139 15.45C10.9805 15.1 11.1139 14.7083 11.1139 14.275C11.1139 13.7417 10.9222 13.3167 10.5389 13C10.1555 12.6667 9.65553 12.4083 9.03887 12.225C8.43887 12.025 7.76387 11.8417 7.01387 11.675C6.28053 11.5083 5.53887 11.3167 4.78887 11.1C4.05553 10.8667 3.38053 10.575 2.76387 10.225C2.16387 9.85833 1.6722 9.375 1.28887 8.775C0.905534 8.175 0.713867 7.40833 0.713867 6.475C0.713867 5.525 0.963867 4.65833 1.46387 3.875C1.98053 3.075 2.75553 2.44167 3.78887 1.975C4.83887 1.49167 6.16387 1.25 7.76387 1.25C8.81387 1.25 9.85553 1.38333 10.8889 1.65C11.9222 1.91667 12.8222 2.3 13.5889 2.8L12.5639 5.325C11.7805 4.85833 10.9722 4.51667 10.1389 4.3C9.30553 4.06667 8.50553 3.95 7.73887 3.95C6.83887 3.95 6.10553 4.05833 5.53887 4.275C4.98887 4.49167 4.58053 4.775 4.31387 5.125C4.06387 5.475 3.93887 5.875 3.93887 6.325C3.93887 6.85833 4.1222 7.29167 4.48887 7.625C4.8722 7.94167 5.36387 8.19167 5.96387 8.375C6.58053 8.55833 7.26387 8.74167 8.01387 8.925C8.76387 9.09167 9.50553 9.28333 10.2389 9.5C10.9889 9.71667 11.6639 10 12.2639 10.35C12.8805 10.7 13.3722 11.175 13.7389 11.775C14.1222 12.375 14.3139 13.1333 14.3139 14.05C14.3139 14.9833 14.0555 15.85 13.5389 16.65C13.0389 17.4333 12.2639 18.0667 11.2139 18.55C10.1639 19.0167 8.83887 19.25 7.23887 19.25ZM24.4615 19.25C23.0949 19.25 21.8365 19.0333 20.6865 18.6C19.5532 18.15 18.5615 17.525 17.7115 16.725C16.8615 15.9083 16.2032 14.95 15.7365 13.85C15.2699 12.75 15.0365 11.55 15.0365 10.25C15.0365 8.95 15.2699 7.75 15.7365 6.65C16.2032 5.55 16.8615 4.6 17.7115 3.8C18.5782 2.98333 19.5865 2.35833 20.7365 1.925C21.8865 1.475 23.1449 1.25 24.5115 1.25C25.9949 1.25 27.3282 1.49167 28.5115 1.975C29.7115 2.45833 30.7199 3.16667 31.5365 4.1L29.4865 6.1C28.8032 5.41667 28.0615 4.91667 27.2615 4.6C26.4782 4.26667 25.6115 4.1 24.6615 4.1C23.7449 4.1 22.8949 4.25 22.1115 4.55C21.3282 4.85 20.6532 5.275 20.0865 5.825C19.5199 6.375 19.0782 7.025 18.7615 7.775C18.4615 8.525 18.3115 9.35 18.3115 10.25C18.3115 11.1333 18.4615 11.95 18.7615 12.7C19.0782 13.45 19.5199 14.1083 20.0865 14.675C20.6532 15.225 21.3199 15.65 22.0865 15.95C22.8532 16.25 23.7032 16.4 24.6365 16.4C25.5032 16.4 26.3365 16.2667 27.1365 16C27.9532 15.7167 28.7282 15.25 29.4615 14.6L31.3115 17.025C30.3949 17.7583 29.3282 18.3167 28.1115 18.7C26.9115 19.0667 25.6949 19.25 24.4615 19.25ZM28.2365 16.6V10.05H31.3115V17.025L28.2365 16.6ZM43.5572 19V4.25H37.7572V1.5H52.6072V4.25H46.8072V19H43.5572ZM58.4041 19.175C56.9208 19.175 55.6208 18.8833 54.5041 18.3C53.4041 17.7 52.5458 16.8833 51.9291 15.85C51.3291 14.8167 51.0291 13.6417 51.0291 12.325C51.0291 10.9917 51.3208 9.81667 51.9041 8.8C52.5041 7.76667 53.3208 6.95833 54.3541 6.375C55.4041 5.79167 56.5958 5.5 57.9291 5.5C59.2291 5.5 60.3874 5.78333 61.4041 6.35C62.4208 6.91667 63.2208 7.71667 63.8041 8.75C64.3874 9.78333 64.6791 11 64.6791 12.4C64.6791 12.5333 64.6708 12.6833 64.6541 12.85C64.6541 13.0167 64.6458 13.175 64.6291 13.325H53.5041V11.25H62.9791L61.7541 11.9C61.7708 11.1333 61.6124 10.4583 61.2791 9.875C60.9458 9.29167 60.4874 8.83333 59.9041 8.5C59.3374 8.16667 58.6791 8 57.9291 8C57.1624 8 56.4874 8.16667 55.9041 8.5C55.3374 8.83333 54.8874 9.3 54.5541 9.9C54.2374 10.4833 54.0791 11.175 54.0791 11.975V12.475C54.0791 13.275 54.2624 13.9833 54.6291 14.6C54.9958 15.2167 55.5124 15.6917 56.1791 16.025C56.8458 16.3583 57.6124 16.525 58.4791 16.525C59.2291 16.525 59.9041 16.4083 60.5041 16.175C61.1041 15.9417 61.6374 15.575 62.1041 15.075L63.7791 17C63.1791 17.7 62.4208 18.2417 61.5041 18.625C60.6041 18.9917 59.5708 19.175 58.4041 19.175ZM72.5559 19.175C71.1559 19.175 69.9059 18.8833 68.8059 18.3C67.7225 17.7 66.8725 16.8833 66.2559 15.85C65.6392 14.8167 65.3309 13.6417 65.3309 12.325C65.3309 10.9917 65.6392 9.81667 66.2559 8.8C66.8725 7.76667 67.7225 6.95833 68.8059 6.375C69.9059 5.79167 71.1559 5.5 72.5559 5.5C73.8559 5.5 74.9975 5.76667 75.9809 6.3C76.9809 6.81667 77.7392 7.58333 78.2559 8.6L75.8559 10C75.4559 9.36667 74.9642 8.9 74.3809 8.6C73.8142 8.3 73.1975 8.15 72.5309 8.15C71.7642 8.15 71.0725 8.31667 70.4559 8.65C69.8392 8.98333 69.3559 9.46667 69.0059 10.1C68.6559 10.7167 68.4809 11.4583 68.4809 12.325C68.4809 13.1917 68.6559 13.9417 69.0059 14.575C69.3559 15.1917 69.8392 15.6667 70.4559 16C71.0725 16.3333 71.7642 16.5 72.5309 16.5C73.1975 16.5 73.8142 16.35 74.3809 16.05C74.9642 15.75 75.4559 15.2833 75.8559 14.65L78.2559 16.05C77.7392 17.05 76.9809 17.825 75.9809 18.375C74.9975 18.9083 73.8559 19.175 72.5559 19.175ZM87.1602 5.5C88.2268 5.5 89.1768 5.70833 90.0102 6.125C90.8602 6.54167 91.5268 7.18333 92.0102 8.05C92.4935 8.9 92.7352 10 92.7352 11.35V19H89.6102V11.75C89.6102 10.5667 89.3268 9.68333 88.7602 9.1C88.2102 8.51667 87.4352 8.225 86.4352 8.225C85.7018 8.225 85.0518 8.375 84.4852 8.675C83.9185 8.975 83.4768 9.425 83.1602 10.025C82.8602 10.6083 82.7102 11.35 82.7102 12.25V19H79.5852V0.449999H82.7102V9.25L82.0352 8.15C82.5018 7.3 83.1768 6.65 84.0602 6.2C84.9602 5.73333 85.9935 5.5 87.1602 5.5ZM103.024 5.5C104.091 5.5 105.041 5.70833 105.874 6.125C106.724 6.54167 107.391 7.18333 107.874 8.05C108.358 8.9 108.599 10 108.599 11.35V19H105.474V11.75C105.474 10.5667 105.191 9.68333 104.624 9.1C104.074 8.51667 103.299 8.225 102.299 8.225C101.566 8.225 100.916 8.375 100.349 8.675C99.7827 8.975 99.3411 9.425 99.0244 10.025C98.7244 10.6083 98.5744 11.35 98.5744 12.25V19H95.4494V5.65H98.4244V9.25L97.8994 8.15C98.3661 7.3 99.0411 6.65 99.9244 6.2C100.824 5.73333 101.858 5.5 103.024 5.5ZM117.338 19.175C115.971 19.175 114.755 18.8833 113.688 18.3C112.621 17.7 111.78 16.8833 111.163 15.85C110.546 14.8167 110.238 13.6417 110.238 12.325C110.238 10.9917 110.546 9.81667 111.163 8.8C111.78 7.76667 112.621 6.95833 113.688 6.375C114.755 5.79167 115.971 5.5 117.338 5.5C118.721 5.5 119.946 5.79167 121.013 6.375C122.096 6.95833 122.938 7.75833 123.538 8.775C124.155 9.79167 124.463 10.975 124.463 12.325C124.463 13.6417 124.155 14.8167 123.538 15.85C122.938 16.8833 122.096 17.7 121.013 18.3C119.946 18.8833 118.721 19.175 117.338 19.175ZM117.338 16.5C118.105 16.5 118.788 16.3333 119.388 16C119.988 15.6667 120.455 15.1833 120.788 14.55C121.138 13.9167 121.313 13.175 121.313 12.325C121.313 11.4583 121.138 10.7167 120.788 10.1C120.455 9.46667 119.988 8.98333 119.388 8.65C118.788 8.31667 118.113 8.15 117.363 8.15C116.596 8.15 115.913 8.31667 115.313 8.65C114.73 8.98333 114.263 9.46667 113.913 10.1C113.563 10.7167 113.388 11.4583 113.388 12.325C113.388 13.175 113.563 13.9167 113.913 14.55C114.263 15.1833 114.73 15.6667 115.313 16C115.913 16.3333 116.588 16.5 117.338 16.5ZM126.626 19V4.9C126.626 3.5 127.035 2.38333 127.851 1.55C128.685 0.7 129.868 0.275 131.401 0.275C131.951 0.275 132.468 0.333333 132.951 0.449999C133.451 0.566666 133.868 0.75 134.201 0.999999L133.351 3.35C133.118 3.16667 132.851 3.03333 132.551 2.95C132.251 2.85 131.943 2.8 131.626 2.8C130.976 2.8 130.485 2.98333 130.151 3.35C129.818 3.7 129.651 4.23333 129.651 4.95V6.45L129.751 7.85V19H126.626ZM124.426 8.25V5.75H133.326V8.25H124.426ZM142.161 19V16.3L141.986 15.725V11C141.986 10.0833 141.711 9.375 141.161 8.875C140.611 8.35833 139.777 8.1 138.661 8.1C137.911 8.1 137.169 8.21667 136.436 8.45C135.719 8.68333 135.111 9.00833 134.611 9.425L133.386 7.15C134.102 6.6 134.952 6.19167 135.936 5.925C136.936 5.64167 137.969 5.5 139.036 5.5C140.969 5.5 142.461 5.96667 143.511 6.9C144.577 7.81667 145.111 9.24167 145.111 11.175V19H142.161ZM137.961 19.175C136.961 19.175 136.086 19.0083 135.336 18.675C134.586 18.325 134.002 17.85 133.586 17.25C133.186 16.6333 132.986 15.9417 132.986 15.175C132.986 14.425 133.161 13.75 133.511 13.15C133.877 12.55 134.469 12.075 135.286 11.725C136.102 11.375 137.186 11.2 138.536 11.2H142.411V13.275H138.761C137.694 13.275 136.977 13.45 136.611 13.8C136.244 14.1333 136.061 14.55 136.061 15.05C136.061 15.6167 136.286 16.0667 136.736 16.4C137.186 16.7333 137.811 16.9 138.611 16.9C139.377 16.9 140.061 16.725 140.661 16.375C141.277 16.025 141.719 15.5083 141.986 14.825L142.511 16.7C142.211 17.4833 141.669 18.0917 140.886 18.525C140.119 18.9583 139.144 19.175 137.961 19.175ZM155.271 19.175C154.138 19.175 153.13 18.925 152.246 18.425C151.363 17.925 150.663 17.175 150.146 16.175C149.646 15.1583 149.396 13.875 149.396 12.325C149.396 10.7583 149.655 9.475 150.171 8.475C150.705 7.475 151.413 6.73333 152.296 6.25C153.196 5.75 154.188 5.5 155.271 5.5C156.588 5.5 157.746 5.78333 158.746 6.35C159.763 6.91667 160.563 7.70833 161.146 8.725C161.746 9.74167 162.046 10.9417 162.046 12.325C162.046 13.7083 161.746 14.9083 161.146 15.925C160.563 16.9417 159.763 17.7417 158.746 18.325C157.746 18.8917 156.588 19.175 155.271 19.175ZM147.871 19V0.449999H150.996V8.75L150.746 12.3L150.846 15.85V19H147.871ZM154.921 16.5C155.671 16.5 156.338 16.3333 156.921 16C157.521 15.6667 157.996 15.1833 158.346 14.55C158.696 13.9167 158.871 13.175 158.871 12.325C158.871 11.4583 158.696 10.7167 158.346 10.1C157.996 9.46667 157.521 8.98333 156.921 8.65C156.338 8.31667 155.671 8.15 154.921 8.15C154.171 8.15 153.496 8.31667 152.896 8.65C152.296 8.98333 151.821 9.46667 151.471 10.1C151.121 10.7167 150.946 11.4583 150.946 12.325C150.946 13.175 151.121 13.9167 151.471 14.55C151.821 15.1833 152.296 15.6667 152.896 16C153.496 16.3333 154.171 16.5 154.921 16.5Z" fill="#1F2B64"/>
</svg>
