<svg width="1002" height="131" viewBox="0 0 1002 131" fill="none" xmlns="http://www.w3.org/2000/svg">
<path d="M63.57 130.36C27.02 130.36 0.16 104.35 0.16 69.5C0.16 34.65 27.02 8.64 63.57 8.64C99.78 8.64 126.64 34.48 126.64 69.5C126.64 104.52 99.78 130.36 63.57 130.36ZM63.57 115.23C89.92 115.23 109.64 95.85 109.64 69.5C109.64 43.15 89.92 23.77 63.57 23.77C36.88 23.77 17.16 43.15 17.16 69.5C17.16 95.85 36.88 115.23 63.57 115.23ZM217.903 38.9H234.223V129H218.753V115.4C212.123 124.75 200.903 130.02 188.153 130.02C164.863 130.02 149.393 117.27 149.393 90.75V38.9H165.713V88.88C165.713 106.56 174.553 115.4 190.023 115.4C207.023 115.4 217.903 104.86 217.903 85.48V38.9ZM280.932 54.03C286.712 43.49 297.932 38.05 313.742 38.05V53.86C312.382 53.69 311.192 53.69 310.002 53.69C292.492 53.69 281.612 64.4 281.612 84.12V129H265.292V38.9H280.932V54.03ZM509.703 129H493.383L493.213 42.3L450.203 114.55H442.383L399.373 42.81V129H383.053V9.99999H396.993L446.633 93.64L495.593 9.99999H509.533L509.703 129ZM551.196 21.56C544.906 21.56 540.146 16.97 540.146 11.02C540.146 5.06999 544.906 0.309995 551.196 0.309995C557.486 0.309995 562.246 4.9 562.246 10.68C562.246 16.8 557.656 21.56 551.196 21.56ZM543.036 129V38.9H559.356V129H543.036ZM616.357 130.02C601.397 130.02 586.607 125.43 579.127 119.48L585.927 106.56C593.577 112 605.817 115.91 617.547 115.91C632.677 115.91 638.967 111.32 638.967 103.67C638.967 83.44 582.017 100.95 582.017 65.08C582.017 48.93 596.467 38.05 619.587 38.05C631.317 38.05 644.577 41.11 652.397 46.21L645.427 59.13C637.267 53.86 628.257 51.99 619.417 51.99C605.137 51.99 598.167 57.26 598.167 64.4C598.167 85.65 655.287 68.31 655.287 103.33C655.287 119.65 640.327 130.02 616.357 130.02ZM701.523 130.02C686.563 130.02 671.773 125.43 664.293 119.48L671.093 106.56C678.743 112 690.983 115.91 702.713 115.91C717.843 115.91 724.133 111.32 724.133 103.67C724.133 83.44 667.183 100.95 667.183 65.08C667.183 48.93 681.633 38.05 704.753 38.05C716.483 38.05 729.743 41.11 737.563 46.21L730.593 59.13C722.433 53.86 713.423 51.99 704.583 51.99C690.303 51.99 683.333 57.26 683.333 64.4C683.333 85.65 740.453 68.31 740.453 103.33C740.453 119.65 725.493 130.02 701.523 130.02ZM769.009 21.56C762.719 21.56 757.959 16.97 757.959 11.02C757.959 5.06999 762.719 0.309995 769.009 0.309995C775.299 0.309995 780.059 4.9 780.059 10.68C780.059 16.8 775.469 21.56 769.009 21.56ZM760.849 129V38.9H777.169V129H760.849ZM846.919 130.02C819.889 130.02 799.999 110.81 799.999 83.95C799.999 57.09 819.889 38.05 846.919 38.05C873.949 38.05 893.669 57.09 893.669 83.95C893.669 110.81 873.949 130.02 846.919 130.02ZM846.919 115.74C864.259 115.74 877.179 103.16 877.179 83.95C877.179 64.74 864.259 52.33 846.919 52.33C829.579 52.33 816.489 64.74 816.489 83.95C816.489 103.16 829.579 115.74 846.919 115.74ZM964.35 38.05C986.28 38.05 1001.75 50.63 1001.75 77.15V129H985.43V79.02C985.43 61.34 976.59 52.67 961.12 52.67C943.78 52.67 932.56 63.04 932.56 82.59V129H916.24V38.9H931.88V52.5C938.51 43.32 950.07 38.05 964.35 38.05Z" fill="white"/>
</svg>
